<svg width="25" height="25" viewBox="0 0 25 25" fill="none" xmlns="http://www.w3.org/2000/svg">
<path d="M12.4995 15.0024C13.8786 15.0024 15.0029 13.8801 15.0029 12.5C15.0029 11.9552 14.8246 11.4522 14.5296 11.0413C14.0749 10.4109 13.3358 9.99756 12.501 9.99756C11.6657 9.99756 10.927 10.4104 10.4713 11.0408C10.1753 11.4517 9.99855 11.9547 9.99805 12.4995C9.99654 13.8796 11.1199 15.0024 12.4995 15.0024Z" fill="#D0EDFF"/>
<path d="M17.964 9.43858V7.34098V7.02881L17.6503 7.02982L15.5537 7.03636L15.5618 9.44664L17.964 9.43858Z" fill="#D0EDFF"/>
<path d="M12.5 0C5.60753 0 0 5.60753 0 12.5C0 19.392 5.60753 25 12.5 25C19.392 25 25 19.392 25 12.5C25 5.60753 19.393 0 12.5 0ZM19.609 11.0413V16.8619C19.609 18.3779 18.3764 19.61 16.8614 19.61H8.13864C6.6231 19.61 5.39102 18.3779 5.39102 16.8619V11.0413V8.13915C5.39102 6.6236 6.6231 5.39153 8.13864 5.39153H16.8609C18.3764 5.39153 19.609 6.6236 19.609 8.13915V11.0413Z" fill="#D0EDFF"/>
<path d="M16.3885 12.4999C16.3885 14.6433 14.6444 16.3885 12.5 16.3885C10.3556 16.3885 8.61192 14.6433 8.61192 12.4999C8.61192 11.9843 8.71463 11.4914 8.89791 11.0413H6.77563V16.8618C6.77563 17.614 7.38639 18.2232 8.13812 18.2232H16.8603C17.611 18.2232 18.2228 17.614 18.2228 16.8618V11.0413H16.0995C16.2843 11.4914 16.3885 11.9843 16.3885 12.4999Z" fill="#D0EDFF"/>
</svg>
