<svg width="60" height="60" viewBox="0 0 60 60" fill="none" xmlns="http://www.w3.org/2000/svg">
<path d="M59.266 8.036L30.266 0.036C30.091 -0.012 29.909 -0.012 29.734 0.036L0.734 8.036C0.3 8.156 0 8.55 0 9C0 9.45 0.3 9.844 0.734 9.964L14 13.623V25.451C10.78 29.249 9 34.039 9 39C9 43.75 10.604 48.122 13.273 51.644C13.283 51.659 13.285 51.678 13.296 51.692C13.352 51.766 13.413 51.835 13.47 51.908C13.654 52.143 13.838 52.377 14.032 52.604C14.338 52.964 14.654 53.311 14.98 53.646C15.127 53.797 15.278 53.942 15.429 54.088C15.805 54.453 16.189 54.807 16.588 55.141C16.615 55.163 16.639 55.187 16.666 55.209C17.161 55.619 17.676 55.998 18.203 56.359C18.239 56.384 18.275 56.409 18.311 56.434C18.858 56.804 19.421 57.145 19.998 57.46C19.999 57.461 20 57.461 20.001 57.462C21.773 58.427 23.68 59.13 25.674 59.546C25.742 59.56 25.809 59.574 25.877 59.588C26.501 59.712 27.133 59.811 27.772 59.878C27.852 59.886 27.933 59.891 28.013 59.899C28.669 59.961 29.331 60 30 60C30.669 60 31.331 59.961 31.987 59.899C32.067 59.891 32.148 59.887 32.228 59.878C32.867 59.811 33.499 59.712 34.123 59.588C34.191 59.574 34.258 59.561 34.326 59.546C36.32 59.129 38.227 58.427 39.999 57.462C40 57.461 40.001 57.461 40.002 57.46C40.579 57.145 41.142 56.804 41.689 56.434C41.725 56.41 41.761 56.384 41.797 56.359C42.324 55.998 42.839 55.619 43.334 55.209C43.361 55.187 43.385 55.163 43.412 55.141C43.811 54.807 44.195 54.453 44.571 54.088C44.722 53.942 44.873 53.796 45.02 53.646C45.345 53.31 45.662 52.963 45.968 52.604C46.162 52.377 46.346 52.143 46.53 51.908C46.587 51.835 46.648 51.766 46.704 51.692C46.715 51.678 46.717 51.659 46.727 51.644C49.396 48.122 51 43.75 51 39C51 34.039 49.22 29.249 46 25.451V13.623L54 11.416V19.818L51.063 27.649C50.925 28.016 51.015 28.43 51.292 28.707L54.292 31.707C54.488 31.902 54.744 32 55 32C55.256 32 55.512 31.902 55.707 31.707L58.707 28.707C58.984 28.43 59.074 28.016 58.936 27.649L56 19.818V10.865L59.266 9.964C59.7 9.844 60 9.45 60 9C60 8.55 59.7 8.156 59.266 8.036ZM15.219 27.093L22.925 29.148C21.785 32.16 21.149 35.128 21.028 38H11.043C11.254 34.026 12.703 30.21 15.219 27.093ZM23.026 38C23.149 35.308 23.763 32.512 24.862 29.665L29.742 30.966C29.827 30.989 29.914 31 30 31C30.086 31 30.173 30.989 30.258 30.966L35.138 29.665C36.237 32.512 36.851 35.308 36.974 38H23.026ZM36.964 40C36.861 42.259 36.429 44.424 35.805 46.423C33.948 46.147 31.996 46 30 46C28.004 46 26.052 46.147 24.195 46.423C23.571 44.424 23.139 42.259 23.036 40H36.964ZM35.479 27.504C35.479 27.504 35.479 27.504 35.478 27.504L30 28.965L24.521 27.504C24.521 27.504 24.521 27.504 24.52 27.504L16 25.232V14.175L29.734 17.964C29.821 17.988 29.911 18 30 18C30.089 18 30.179 17.988 30.266 17.964L44 14.175V25.232L35.479 27.504ZM14.332 49.726C12.412 46.93 11.239 43.594 11.051 40H21.043C21.142 42.394 21.566 44.677 22.198 46.779C19.137 47.414 16.421 48.419 14.332 49.726ZM26.252 57.626C26.212 57.617 26.171 57.61 26.131 57.602C25.542 57.48 24.964 57.33 24.396 57.155C24.372 57.147 24.347 57.14 24.323 57.133C23.742 56.951 23.172 56.742 22.616 56.507C22.613 56.506 22.609 56.504 22.606 56.503C20.966 55.807 19.448 54.882 18.081 53.776C17.999 53.709 17.915 53.645 17.834 53.577C17.48 53.281 17.142 52.967 16.81 52.646C16.656 52.496 16.503 52.344 16.353 52.189C16.085 51.912 15.825 51.626 15.574 51.332C15.569 51.326 15.563 51.32 15.558 51.314C17.481 50.145 19.999 49.258 22.836 48.694C24.339 52.749 26.436 55.984 27.821 57.866C27.292 57.805 26.767 57.729 26.252 57.626ZM30 57.416C28.827 55.899 26.52 52.604 24.875 48.354C26.518 48.13 28.234 48 30 48C31.766 48 33.482 48.13 35.125 48.354C33.479 52.604 31.173 55.899 30 57.416ZM44.426 51.33C44.175 51.625 43.916 51.911 43.647 52.188C43.497 52.344 43.344 52.495 43.19 52.645C42.858 52.966 42.52 53.28 42.166 53.576C42.085 53.644 42.001 53.708 41.919 53.775C40.552 54.88 39.034 55.806 37.394 56.502C37.391 56.503 37.387 56.505 37.384 56.506C36.828 56.741 36.258 56.95 35.677 57.132C35.653 57.14 35.628 57.147 35.604 57.154C35.037 57.33 34.458 57.479 33.869 57.601C33.829 57.609 33.788 57.616 33.748 57.624C33.233 57.728 32.708 57.803 32.179 57.864C33.564 55.982 35.661 52.748 37.164 48.692C40.001 49.257 42.519 50.143 44.442 51.312C44.437 51.318 44.431 51.324 44.426 51.33ZM45.669 49.725C43.579 48.418 40.864 47.414 37.803 46.778C38.435 44.676 38.86 42.393 38.958 39.999H48.95C48.761 43.594 47.588 46.93 45.669 49.725ZM48.957 38H38.972C38.852 35.128 38.216 32.16 37.075 29.148L44.781 27.093C47.297 30.21 48.745 34.025 48.957 38ZM30 15.963L4.76 9L30 2.037L55.24 9L30 15.963ZM56.837 27.748L55 29.586L53.163 27.748L55 22.848L56.837 27.748Z" fill="#F9FAFB"/>
<path d="M31 8H29V10H31V8Z" fill="#F9FAFB"/>
</svg>
